<svg width="800px" height="800px" viewBox="0 0 32 32" xmlns="http://www.w3.org/2000/svg">
<path d="M31.396 14.575l-13.975-13.975c-0.804-0.804-2.109-0.804-2.917 0l-2.895 2.895 3.687 3.687c0.857-0.289 1.839-0.095 2.519 0.589 0.686 0.686 0.878 1.682 0.577 2.544l3.553 3.553c0.863-0.3 1.858-0.109 2.544 0.577 0.958 0.958 0.958 2.509 0 3.468-0.958 0.958-2.509 0.958-3.468 0-0.72-0.72-0.898-1.78-0.534-2.668l-3.319-3.319v8.749c0.233 0.115 0.454 0.27 0.648 0.464 0.958 0.958 0.958 2.509 0 3.468-0.958 0.958-2.511 0.958-3.467 0-0.958-0.958-0.958-2.511 0-3.468 0.237-0.237 0.51-0.416 0.803-0.534v-8.828c-0.293-0.118-0.566-0.296-0.803-0.534-0.724-0.724-0.898-1.789-0.528-2.68l-3.633-3.635-9.581 9.581c-0.804 0.804-0.804 2.109 0 2.917l13.975 13.975c0.804 0.804 2.109 0.804 2.917 0l13.906-13.906c0.804-0.804 0.804-2.109 0-2.917z" fill="#F03C2E"/>
</svg>