<svg width="800px" height="800px" viewBox="0 0 32 32" xmlns="http://www.w3.org/2000/svg">
<path d="M28 4h-24c-1.105 0-2 0.895-2 2v20c0 1.105 0.895 2 2 2h24c1.105 0 2-0.895 2-2v-20c0-1.105-0.895-2-2-2zM14 21.5c0 0.276-0.224 0.5-0.5 0.5h-5c-0.276 0-0.5-0.224-0.5-0.5v-1c0-0.276 0.224-0.5 0.5-0.5h5c0.276 0 0.5 0.224 0.5 0.5v1zM20.5 14.5l-7.5 7.5c-0.195 0.195-0.512 0.195-0.707 0l-0.707-0.707c-0.195-0.195-0.195-0.512 0-0.707l6.293-6.293-6.293-6.293c-0.195-0.195-0.195-0.512 0-0.707l0.707-0.707c0.195-0.195 0.512-0.195 0.707 0l7.5 7.5c0.195 0.195 0.195 0.512 0 0.707z" fill="#4D4D4D"/>
</svg>